<?xml version="1.0" encoding="UTF-8"?>
<svg id="Capa_2" data-name="Capa 2" xmlns="http://www.w3.org/2000/svg" viewBox="0 0 713.56 466.83">
  <defs>
    <style>
      .cls-1 {
        fill: #112250;
      }
    </style>
  </defs>
  <g id="Capa_1-2" data-name="Capa 1">
    <g>
      <g>
        <path class="cls-1" d="M403.17,237.31c-12.4-6.85-26.39-10.72-40.47-11.19-20.39-.68-36.54,5.71-46.49,11.19-3.78,2.08-5.15,6.83-3.07,10.61,1.42,2.58,4.09,4.04,6.85,4.04,1.27,0,2.57-.31,3.76-.97,8.23-4.53,21.58-9.83,38.43-9.26,14.68.49,26.29,5.3,33.44,9.25,3.78,2.09,8.53.71,10.61-3.06,2.08-3.77.71-8.53-3.06-10.61Z"/>
        <path class="cls-1" d="M434.91,219.9c-21.4-11.82-45.55-18.49-69.82-19.31-35.17-1.17-63.04,9.85-80.21,19.3-3.78,2.08-5.15,6.83-3.07,10.61,2.08,3.78,6.83,5.15,10.61,3.07,15.45-8.51,40.5-18.43,72.15-17.37,21.82.73,43.53,6.74,62.79,17.37,1.2.66,2.49.97,3.77.97,2.75,0,5.42-1.46,6.84-4.04,2.08-3.77.71-8.53-3.06-10.61Z"/>
        <circle class="cls-1" cx="360.71" cy="267.49" r="13.57"/>
        <path class="cls-1" d="M488.46,90.64L360.74,0l-129.56,90.61c-3.53,2.47-4.4,7.34-1.92,10.87,1.52,2.17,3.94,3.33,6.41,3.33,1.54,0,3.11-.46,4.47-1.41l18.02-12.6v113.88c0,5.94,6.37,9.71,11.58,6.84,20.83-11.48,54.62-24.85,97.29-23.43,29.43.99,58.71,9.08,84.67,23.42h0c5.2,2.87,11.58-.89,11.58-6.83v-112.77l16.14,11.46c3.52,2.49,8.39,1.67,10.89-1.85,2.5-3.52,1.67-8.39-1.85-10.89ZM447.66,191.93c-25.1-11.83-52.55-18.52-80.12-19.44-39.01-1.31-71.14,8.8-93.77,19.45v-112.05l86.91-60.78,86.98,61.73v111.09Z"/>
      </g>
      <g>
        <path class="cls-1" d="M28.93,429.18c-9.04-4.92-16.12-11.71-21.24-20.37-5.13-8.67-7.69-18.44-7.69-29.33s2.59-20.66,7.77-29.33c5.18-8.67,12.29-15.46,21.32-20.37,9.04-4.91,19.16-7.37,30.36-7.37,9.09,0,17.38,1.59,24.89,4.76,7.5,3.17,13.84,7.77,19.02,13.79l-13.32,12.52c-8.03-8.67-17.91-13-29.65-13-7.61,0-14.43,1.67-20.45,4.99-6.02,3.33-10.73,7.95-14.11,13.87-3.38,5.92-5.07,12.63-5.07,20.13s1.69,14.22,5.07,20.13c3.38,5.92,8.09,10.54,14.11,13.87,6.02,3.33,12.84,4.99,20.45,4.99,11.73,0,21.61-4.38,29.65-13.16l13.32,12.68c-5.18,6.02-11.55,10.62-19.1,13.79-7.56,3.17-15.88,4.76-24.97,4.76-11.2,0-21.32-2.46-30.36-7.37Z"/>
        <path class="cls-1" d="M128.41,430.53c-6.87-3.7-12.23-8.85-16.09-15.46-3.86-6.6-5.79-14.08-5.79-22.43s1.93-15.8,5.79-22.35c3.86-6.55,9.22-11.68,16.09-15.38,6.87-3.7,14.58-5.55,23.15-5.55s16.43,1.85,23.3,5.55c6.87,3.7,12.23,8.83,16.09,15.38,3.86,6.55,5.79,14.01,5.79,22.35s-1.93,15.83-5.79,22.43c-3.86,6.61-9.22,11.76-16.09,15.46-6.87,3.7-14.64,5.55-23.3,5.55s-16.28-1.85-23.15-5.55ZM169.63,411.82c4.76-4.86,7.13-11.26,7.13-19.18s-2.38-14.32-7.13-19.18c-4.76-4.86-10.78-7.29-18.07-7.29s-13.29,2.43-17.99,7.29c-4.7,4.86-7.05,11.26-7.05,19.18s2.35,14.32,7.05,19.18c4.7,4.86,10.7,7.29,17.99,7.29s13.32-2.43,18.07-7.29Z"/>
        <path class="cls-1" d="M293.13,350.31v84.66h-18.87v-10.78c-3.17,3.8-7.13,6.74-11.89,8.8-4.76,2.06-9.88,3.09-15.38,3.09-11.31,0-20.21-3.14-26.71-9.43-6.5-6.29-9.75-15.62-9.75-27.98v-48.35h19.82v45.66c0,7.61,1.72,13.29,5.15,17.04,3.43,3.75,8.32,5.63,14.66,5.63,7.08,0,12.71-2.19,16.88-6.58,4.17-4.38,6.26-10.7,6.26-18.95v-42.8h19.82Z"/>
        <path class="cls-1" d="M388.25,358.71c6.45,6.24,9.67,15.48,9.67,27.74v48.51h-19.82v-45.98c0-7.4-1.74-12.97-5.23-16.73-3.49-3.75-8.46-5.63-14.9-5.63-7.29,0-13.05,2.2-17.28,6.58-4.23,4.39-6.34,10.7-6.34,18.95v42.8h-19.82v-84.66h18.87v10.94c3.27-3.91,7.4-6.87,12.37-8.88,4.97-2.01,10.57-3.01,16.8-3.01,10.67,0,19.23,3.12,25.68,9.35Z"/>
        <path class="cls-1" d="M466.09,430.37c-2.33,1.9-5.15,3.33-8.48,4.28-3.33.95-6.84,1.43-10.54,1.43-9.3,0-16.49-2.43-21.56-7.29-5.07-4.86-7.61-11.94-7.61-21.24v-75.94h19.82v19.34h22.67v15.85h-22.67v40.27c0,4.12,1.03,7.27,3.09,9.43,2.06,2.17,4.94,3.25,8.64,3.25,4.44,0,8.14-1.16,11.1-3.49l5.55,14.11Z"/>
        <path class="cls-1" d="M526.81,349.36v18.87c-1.69-.32-3.23-.48-4.6-.48-7.72,0-13.74,2.25-18.07,6.74-4.33,4.49-6.5,10.97-6.5,19.42v41.06h-19.82v-84.66h18.87v12.37c5.71-8.88,15.75-13.32,30.12-13.32Z"/>
        <path class="cls-1" d="M539.97,332.95c-2.43-2.27-3.65-5.1-3.65-8.48s1.21-6.21,3.65-8.48c2.43-2.27,5.44-3.41,9.04-3.41s6.6,1.08,9.04,3.25c2.43,2.17,3.65,4.89,3.65,8.17,0,3.49-1.19,6.42-3.57,8.8s-5.42,3.57-9.12,3.57-6.61-1.13-9.04-3.41ZM539.02,350.31h19.82v84.66h-19.82v-84.66Z"/>
        <path class="cls-1" d="M599.58,345.87v5.07h23.3v15.85h-22.83v68.17h-19.82v-89.41c0-8.98,2.64-16.12,7.93-21.4,5.28-5.28,12.79-7.93,22.51-7.93,7.5,0,13.42,1.53,17.76,4.6l-5.55,14.9c-3.17-2.32-6.77-3.49-10.78-3.49-8.35,0-12.52,4.55-12.52,13.63Z"/>
        <path class="cls-1" d="M713.56,350.31v71.82c0,29.8-14.64,44.71-43.91,44.71-7.72,0-15.09-1.03-22.12-3.09-7.03-2.06-12.82-5.05-17.36-8.96l8.88-14.9c3.59,3.06,7.98,5.49,13.16,7.29,5.18,1.8,10.62,2.7,16.33,2.7,8.67,0,15.03-2.09,19.1-6.26,4.07-4.18,6.1-10.59,6.1-19.26v-3.96c-3.17,3.49-7.03,6.16-11.57,8.01-4.55,1.85-9.46,2.77-14.74,2.77-11.31,0-20.21-3.12-26.71-9.35-6.5-6.24-9.75-15.59-9.75-28.06v-43.44h19.82v40.9c0,7.51,1.72,13.13,5.15,16.88,3.43,3.75,8.32,5.63,14.66,5.63,7.08,0,12.71-2.17,16.88-6.5,4.17-4.33,6.26-10.62,6.26-18.87v-38.05h19.82Z"/>
      </g>
    </g>
  </g>
</svg>