<?xml version="1.0" encoding="UTF-8"?>
<svg id="Capa_2" data-name="Capa 2" xmlns="http://www.w3.org/2000/svg" viewBox="0 0 682.21 682.21">
  <defs>
    <style>
      .cls-1 {
        fill: #112250;
      }

      .cls-2 {
        fill: #eaeaea;
      }
    </style>
  </defs>
  <g id="Capa_1-2" data-name="Capa 1">
    <g>
      <rect class="cls-1" width="682.21" height="682.21" rx="128.68" ry="128.68"/>
      <g>
        <path class="cls-2" d="M416.62,518.59c-21.59-11.92-45.95-18.66-70.44-19.48-35.49-1.19-63.61,9.93-80.92,19.47-6.57,3.62-8.97,11.89-5.34,18.46,2.48,4.49,7.12,7.04,11.92,7.04,2.22,0,4.47-.55,6.55-1.69,14.32-7.89,37.56-17.1,66.89-16.11,25.56.86,45.76,9.23,58.21,16.11,6.57,3.63,14.84,1.24,18.47-5.33,3.63-6.57,1.24-14.84-5.33-18.47Z"/>
        <path class="cls-2" d="M471.86,485.27c-37.26-20.57-79.28-32.19-121.53-33.61-61.22-2.04-109.74,17.14-139.62,33.6-6.58,3.62-8.97,11.89-5.35,18.46,3.62,6.58,11.89,8.97,18.46,5.35,26.89-14.81,70.49-32.08,125.59-30.24,37.98,1.27,75.78,11.73,109.3,30.24,2.08,1.15,4.34,1.7,6.56,1.7,4.79,0,9.43-2.54,11.91-7.03,3.63-6.57,1.24-14.84-5.33-18.47Z"/>
        <circle class="cls-2" cx="342.7" cy="569.11" r="23.62"/>
        <path class="cls-2" d="M565.07,259.26l-222.32-157.78-225.54,157.73c-6.15,4.3-7.65,12.78-3.35,18.93,2.64,3.78,6.86,5.8,11.15,5.8,2.69,0,5.41-.8,7.78-2.45l31.36-21.93v198.23c0,10.34,11.09,16.9,20.15,11.9,36.26-19.98,95.08-43.26,169.36-40.78,51.23,1.71,102.2,15.81,147.4,40.77h0c9.06,5,20.16-1.55,20.16-11.9v-196.3l28.1,19.95c6.12,4.34,14.61,2.91,18.95-3.22,4.34-6.12,2.9-14.61-3.22-18.95ZM494.05,435.58c-43.69-20.6-91.47-32.23-139.47-33.84-67.91-2.28-123.84,15.32-163.24,33.86v-195.06l151.3-105.81,151.41,107.46v193.39Z"/>
      </g>
    </g>
  </g>
</svg>